<?xml version="1.0" encoding="UTF-8"?><svg xmlns="http://www.w3.org/2000/svg" viewBox="0 0 569 343.06"><defs><style>.cls-1{stroke-width:3px;}.cls-1,.cls-2,.cls-3,.cls-4{stroke-miterlimit:10;}.cls-1,.cls-3{stroke:#f4b140;}.cls-1,.cls-3,.cls-4{fill:none;}.cls-2{stroke:#fff;}.cls-2,.cls-5{fill:#fff;}.cls-3{stroke-width:4px;}.cls-4{stroke:#000;}.cls-6{fill:#0f1d3f;}.cls-6,.cls-7,.cls-5{stroke-width:0px;}.cls-7{fill:#bb2928;}</style></defs><g id="Flag"><rect class="cls-5" x=".12" y=".5" width="568.38" height="342.06"/><polygon class="cls-4" points="568.5 342.56 .5 342.56 .5 137.09 .5 .5 568.5 .5 568.5 342.56"/><polygon class="cls-6" points="568.5 138.56 511.41 106.25 482.52 122.9 396.85 73.45 367.96 89.12 284.5 40.16 197.59 90.1 168.21 73.45 82.54 122.9 53.65 106.25 .5 137.09 .5 .5 568.5 .5 568.5 138.56"/><polygon class="cls-7" points="568.5 238.69 398.16 238.69 284.5 305.85 168.48 238.69 .5 238.75 .5 342.56 568.5 342.56 568.5 238.69"/><polygon class="cls-6" points="184.54 114.84 184.54 229.6 282.49 286.57 381.27 230.42 381.27 114.84 282.9 57.87 184.54 114.84"/></g><g id="NET_Lab"><polyline class="cls-1" points="338.91 157.24 346.84 165.32 359.29 165.32 359.29 144.93 359.29 208.4 359.29 181.16 311.73 181.16"/><circle class="cls-1" cx="359.29" cy="141.06" r="4.52"/><circle class="cls-1" cx="337.95" cy="152.85" r="5.3"/><circle class="cls-1" cx="312.86" cy="123.2" r="4.32"/><line class="cls-1" x1="312.86" y1="118.88" x2="312.86" y2="107.08"/><polyline class="cls-1" points="320.75 136.03 337.95 136.03 337.95 147.54 337.95 106.7 342.61 106.7 283.56 106.7"/><line class="cls-1" x1="339.39" y1="208.24" x2="371.51" y2="208.24"/><polyline class="cls-1" points="333.58 213.54 333.58 221.03 282.9 250.65"/><circle class="cls-1" cx="333.58" cy="207.59" r="5.3"/><circle class="cls-1" cx="282.9" cy="225.76" r="4.24"/><circle class="cls-1" cx="236.83" cy="232.23" r="5.3"/><polyline class="cls-1" points="282.9 272.31 282.9 230.74 282.9 244.24 236.83 218.34"/><polyline class="cls-1" points="236.86 226.92 236.83 197.58 245.45 197.41"/><line class="cls-1" x1="236.83" y1="218.34" x2="194.3" y2="218.34"/><line class="cls-1" x1="205.09" y1="165.71" x2="194.3" y2="165.71"/><line class="cls-1" x1="231.56" y1="144.09" x2="248.6" y2="144.09"/><line class="cls-1" x1="205.09" y1="180.96" x2="248.6" y2="180.96"/><line class="cls-1" x1="232.56" y1="116.62" x2="232.56" y2="155.62"/><polyline class="cls-1" points="206.09 204.52 206.09 145.59 232.56 122.7"/><circle class="cls-1" cx="232.56" cy="160.21" r="3.84"/><circle class="cls-1" cx="206.09" cy="207.59" r="3.93"/><line class="cls-1" x1="282.9" y1="70.96" x2="282.9" y2="111.55"/><line class="cls-1" x1="261.57" y1="116.38" x2="205.09" y2="116.83"/><polyline class="cls-1" points="262.27 122.17 262.24 97.43 282.9 85.53"/><circle class="cls-1" cx="262.23" cy="126.06" r="3.89"/><circle class="cls-1" cx="282.9" cy="116.85" r="5.3"/><polygon class="cls-3" points="195.8 121.41 195.8 223.03 282.54 273.48 370.01 223.76 370.01 121.41 282.9 70.96 195.8 121.41"/><path class="cls-2" d="M243.39,166.23v-32.51h8.45l15.61,19.88v-19.88h8.41v32.51h-8.41l-15.61-19.88v19.88h-8.45Z"/><path class="cls-2" d="M299.73,140.87h-10.05v5.43h9.49v7.16h-9.49v5.61h10.05v7.16h-18.5v-32.51h18.5v7.16Z"/><path class="cls-2" d="M319.58,140.87v25.35h-8.45v-25.35h-6.94v-7.16h22.33v7.16h-6.94Z"/><path class="cls-2" d="M250.93,176.83v25.35h10.13v7.16h-18.58v-32.51h8.45Z"/><path class="cls-2" d="M286.68,203.7h-12.07l-1.94,5.65h-9.01l12.38-32.51h9.23l12.37,32.51h-9.01l-1.94-5.65ZM284.44,197.27l-3.79-10.82-3.79,10.82h7.59Z"/><path class="cls-2" d="M301.34,176.83h12.59c2.99,0,5.26.72,6.81,2.16,1.55,1.44,2.33,3.51,2.33,6.21,0,1.64-.3,3-.88,4.07-.59,1.08-1.49,1.99-2.69,2.74,1.21.23,2.23.58,3.08,1.06.85.47,1.54,1.06,2.07,1.75.53.69.91,1.47,1.14,2.33s.35,1.78.35,2.76c0,1.52-.27,2.87-.8,4.05-.53,1.18-1.28,2.17-2.24,2.97-.96.81-2.13,1.41-3.51,1.81-1.38.4-2.93.6-4.66.6h-13.58v-32.51ZM309.79,189.6h1.55c2.64,0,3.97-1.05,3.97-3.15s-1.32-3.15-3.97-3.15h-1.55v6.3ZM309.79,202.79h1.85c2.13,0,3.65-.27,4.57-.82.92-.55,1.38-1.42,1.38-2.63s-.46-2.08-1.38-2.63c-.92-.55-2.44-.82-4.57-.82h-1.85v6.9Z"/></g></svg>